<?xml version="1.0" encoding="utf-8"?>
<!-- Svg Vector Icons : http://www.onlinewebfonts.com/icon -->
<!DOCTYPE svg PUBLIC "-//W3C//DTD SVG 1.1//EN" "http://www.w3.org/Graphics/SVG/1.1/DTD/svg11.dtd">
<svg version="1.1" xmlns="http://www.w3.org/2000/svg" xmlns:xlink="http://www.w3.org/1999/xlink" x="0px" y="0px" viewBox="0 0 1000 1000" enable-background="new 0 0 1000 1000" xml:space="preserve">
<metadata> Svg Vector Icons : http://www.onlinewebfonts.com/icon </metadata>
<g><path d="M303.3,793.3c-53.8,0-97.8,44-97.8,97.8c0,53.8,44,97.8,97.8,97.8c53.8,0,97.8-44,97.8-97.8C401,837.3,357,793.3,303.3,793.3z M10,11.2V109h97.8l176,371.5l-66,119.7c-7.3,12.2-12.2,29.3-12.2,46.4c0,53.8,44,97.8,97.8,97.8h586.5v-97.8H325.3c-7.3,0-12.2-4.9-12.2-12.2c0-2.4,0-4.9,2.4-4.9l44-80.6h364.1c36.7,0,68.4-19.6,85.5-51.3l176-317.7c4.9-7.3,4.9-14.7,4.9-24.4c0-26.9-22-48.9-48.9-48.9H215.3l-46.4-95.3H10z M792,793.3c-53.8,0-97.8,44-97.8,97.8c0,53.8,44,97.8,97.8,97.8c53.8,0,97.8-44,97.8-97.8C889.8,837.3,845.8,793.3,792,793.3z"/></g>
</svg>